<svg xmlns="http://www.w3.org/2000/svg" xmlns:xlink="http://www.w3.org/1999/xlink">
	
	<symbol id="ico_basket" viewBox="0 0 40 40">
		<title>View basket</title>	
		<circle cx="20" cy="20" r="20" />
		<path fill="#FFF" d="M28.7 25.2h-13l.6-2 11.4-2.3c.4-.1.7-.4.8-.8l1.1-5.9c.1-.3 0-.6-.2-.8-.2-.2-.5-.4-.8-.4h-13l-.2-1.8c-.1-.5-.5-.9-1-.9h-3.1c-.6 0-1 .5-1 1 0 .6.5 1 1 1h2.2l1.1 9.9-1.2 3.7c-.1.3 0 .6.2.9.2.3.5.4.8.4h1.4c-.3.3-.5.7-.5 1.1 0 .8.6 1.4 1.4 1.4.8 0 1.4-.6 1.4-1.4 0-.4-.2-.8-.5-1.1H26c-.3.3-.5.7-.5 1.1 0 .8.6 1.4 1.4 1.4.8 0 1.4-.6 1.4-1.4 0-.4-.2-.8-.5-1.1h1c.6 0 1-.5 1-1 0-.6-.5-1-1.1-1zm-7.6-5l-1.3.3-.6-5.5h1.3l.6 5.2zm1.4-5.3h1.3l.5 4.5-1.3.3-.5-4.8zm4.3 4.1l-.4.1-.5-4.1h1.6l-.7 4zm-9.7-4.1l.6 5.9-1.3.3-.7-6.1h1.4z" />
	</symbol>
	
	<symbol id="icon-calendar" viewBox="0 0 16 16">
		<title>calendar2</title>
		<path d="M5 6h2v2h-2zM8 6h2v2h-2zM11 6h2v2h-2zM2 12h2v2h-2zM5 12h2v2h-2zM8 12h2v2h-2zM5 9h2v2h-2zM8 9h2v2h-2zM11 9h2v2h-2zM2 9h2v2h-2zM13 0v1h-2v-1h-7v1h-2v-1h-2v16h15v-16h-2zM14 15h-13v-11h13v11z"></path>
	</symbol>
	
	<symbol id="ico_favorites" viewBox="0 0 48 48">
		<title>Favorites</title>
		<path d="M35.1,43L24,36L13,43.1c-1.4,0.9-2.2,0.3-1.8-1.3l3.3-12.7L4.3,20.8c-1.3-1-1-2,0.7-2.1l13.1-0.8l4.8-12.2
			c0.6-1.5,1.6-1.5,2.2,0l4.8,12.2L43,18.6c1.7,0.1,2,1,0.7,2.1L33.5,29l3.4,12.7C37.3,43.3,36.5,43.9,35.1,43z" />
	</symbol>


	<symbol id="ico_logo" viewBox="0 0 348 56" width="250">
		<title>Home</title>
		<g>
			<path d="M33.7,1.3h-32c-0.4,0-0.8,0.2-1.1,0.5C0.3,2.1,0.2,2.6,0.2,3l2.2,50.5c0,0.9,0.8,1.6,1.6,1.6l10.7,0
				c0.9,0,1.6-0.7,1.6-1.6V35.2c0-0.1,0.1-0.1,0.1-0.1h9.1c0.9,0,1.6-0.7,1.6-1.6V22.9c0-0.4-0.2-0.8-0.5-1.2
				c-0.3-0.3-0.7-0.5-1.1-0.5l-9.1,0.1c0,0-0.1,0-0.1,0c0,0,0-0.1,0-0.1v-6.5c0-0.1,0.1-0.1,0.1-0.1h15.3c0.8,0,1.6-0.7,1.7-1.5
				l1.7-10c0.1-0.4,0-0.9-0.3-1.2C34.6,1.5,34.2,1.3,33.7,1.3z" />
			<path d="M63.4,1.6c-0.3-0.6-0.9-0.9-1.5-0.9c-0.6,0-1.2,0.3-1.5,0.9c-9,14.9-17,30.5-23.9,46.2
				c-0.1,0.3-0.2,0.6-0.2,0.9c0,0.9,0.5,1.7,1.2,2.1c2.7,1.5,5.4,3,8,4.6c0.5,0.3,1.1,0.4,1.6,0.2c0.5-0.2,1-0.6,1.2-1.2l3.3-8
				c0.2-0.5,0.9-1,1.5-1c5.6-0.2,11.3-0.2,17,0c0.6,0,1.3,0.5,1.5,1c0,0,3.4,8,3.4,8c0.2,0.6,0.7,1,1.2,1.2c0.5,0.2,1.1,0.1,1.6-0.2
				c2.8-1.6,5.6-3.3,8.5-4.8c1.1-0.6,1.5-2,1-3.1C80.5,31.8,72.4,16.4,63.4,1.6z M67.7,34L67.7,34L67.7,34C67.7,34,67.7,34,67.7,34
				c0,0-0.1,0-0.2,0c0,0-0.1,0-0.1,0c-3.7-0.1-7.5-0.1-11.3,0c-0.2,0-0.2,0-0.3,0c0,0,0-0.1,0.1-0.2c1.8-3.4,3.8-6.9,5.7-10.3
				c0.1-0.1,0.1-0.2,0.2-0.2c0,0,0,0,0,0c0,0,0,0,0,0s0,0,0,0c0,0,0.1,0.1,0.1,0.2c1.9,3.4,3.9,6.8,5.7,10.3C67.7,34,67.7,34,67.7,34
				C67.7,34,67.7,34,67.7,34z" />
			<path d="M141.6,0.4h-9.5c-1.2,0-2.2,1-2.2,2.2v21.6c0,0,0,0,0,0c0,0,0,0,0,0L99.5,1.5c-1.4-1-1.4-1-1.7-1
				C97,0.4,97,1.1,97,2.7v48.4c0,1.2,1,2.2,2.2,2.2h9.5c1.2,0,2.2-1,2.2-2.2V32c0,0,0,0,0,0c0,0,0,0,0,0L141.3,55c1.3,1,1.4,1,1.7,1
				c0.8,0,0.8-0.7,0.8-2.2V2.6C143.8,1.4,142.8,0.4,141.6,0.4z" />
			<path d="M193,12.4V3.6c0-1.2-1-2.2-2.3-2.2h-37.9c-1.3,0-2.3,1-2.3,2.2l0,8.8c0,0.6,0.2,1.1,0.6,1.5
				c0.4,0.4,1,0.7,1.7,0.7l11.1,0c0.5,0,0.9,0.3,0.9,0.7v37.5c0,0.6,0.2,1.1,0.6,1.5c0.4,0.4,1.1,0.6,1.7,0.6l10.5-0.9
				c1.2-0.1,2.2-1.2,2.2-2.4V15.4c0-0.4,0.4-0.7,0.9-0.7h10.1C192,14.6,193,13.6,193,12.4z" />
			<path d="M221.6,1.6c-0.4-0.5-1-0.9-1.6-0.9c-0.6,0-1.2,0.3-1.6,0.9c-9.9,14.9-18.7,30.5-26.3,46.2
				c-0.1,0.3-0.2,0.6-0.2,1c0,0.2,0,0.5,0.1,0.7c0.2,0.6,0.6,1.1,1.2,1.4c3,1.5,5.9,3,8.8,4.6c0.6,0.3,1.2,0.4,1.8,0.2
				c0.5-0.2,1-0.6,1.2-1.1l3.7-8c0.2-0.5,1-1,1.7-1c6.2-0.2,12.5-0.2,18.7,0c0.6,0,1.5,0.5,1.7,1l3.7,8c0.2,0.5,0.7,0.9,1.2,1.1
				c0.6,0.2,1.2,0.1,1.8-0.2c3-1.6,6.2-3.3,9.3-4.8c0.6-0.3,1-0.8,1.2-1.4c0.2-0.6,0.1-1.2-0.1-1.7C240.4,31.8,231.5,16.4,221.6,1.6z
				 M226.1,34.1c-4.1-0.1-8.3-0.1-12.4,0c-0.2,0-0.3,0-0.4-0.1c0,0,0-0.1,0.1-0.1c2-3.4,4.1-6.9,6.3-10.3c0.1-0.1,0.2-0.2,0.2-0.2
				c0.1,0,0.1,0.1,0.2,0.2c2.1,3.4,4.3,6.9,6.3,10.3c0,0.1,0,0.1,0.1,0.1C226.4,34,226.3,34.1,226.1,34.1z" />
			<path d="M279.1,20.9c-4.5-1.4-7.2-2.5-7.2-5.1c0-2.1,2.7-3.3,4.5-3.3c3.4,0,5.3,1.2,8.1,3.7l0.6,0.5l5.9-8.4
				c0.3-0.5,0.5-1.1,0.3-1.6c-0.1-0.6-0.5-1-0.9-1.3c0,0-0.1-0.1-0.1-0.1c-2.7-1.6-9.5-5.2-14.2-5.2c0,0,0,0,0,0
				c-8.6,0-17.7,5.7-18.4,16.6c0,0.5-0.1,1-0.1,1.5c0,10.5,8.4,13.3,14.7,15.4c4.7,1.5,7.5,2.6,7.6,5.1c0,0,0,0.1,0,0.1
				c0,0.7-0.3,1.4-0.8,1.9c-1.3,1.3-3.7,1.9-5.5,1.9c-3.8,0-8.3-3.3-8.4-3.3c-1-0.7-2.4-0.6-3.2,0.4c-2.5,2.8-5.2,5.6-7.9,8.3
				l-0.6,0.6l0.6,0.5c5,4.5,12.3,7.2,20,7.2c7.5,0,13.9-2.5,17.7-6.9c2.8-3.3,4.1-7.4,3.6-12C294,25.7,285.4,22.9,279.1,20.9z" />
			<path d="M347.3,50.3l-11.1-16.2l-4.3-6.2c-0.3-0.4-0.3-1.2,0-1.6l14.7-20.1c0.4-0.5,0.5-1.1,0.3-1.6
				c-0.2-0.6-0.6-1-1.2-1.2l-9.5-3.1c-1.1-0.3-2.4,0.1-3,1c-4.5,6.4-9.5,13.4-15.1,21.3c0-6.9,0.1-13.8,0.2-20.6c0,0,0,0,0,0
				c0-0.6-0.2-1.2-0.7-1.6c-0.4-0.4-1-0.6-1.6-0.5c-3.1,0.4-6.3,0.9-9.6,1.4c-1.1,0.2-2.1,1.2-2.1,2.4c-0.3,8.1-0.4,16.2-0.4,24.3
				c0,8.4,0.1,16.7,0.5,25.1c0,1.2,1,2.2,2.2,2.1c3.1-0.1,6.3-0.3,9.6-0.5c1.2-0.1,2.1-1.1,2.1-2.3c0,0,0,0,0,0
				c-0.1-6.9-0.1-14-0.2-21c4.5,7,9.8,15.3,14.9,23.5c0.6,1,1.9,1.5,3,1.1l10.4-3.1c0.6-0.2,1.1-0.6,1.3-1.2
				C347.8,51.4,347.7,50.8,347.3,50.3z" />
		</g>
	</symbol>
	
	<symbol id="ico_next" viewBox="0 0 1024 1024">
		<title>Right arrow</title>
		<path fill="#B0AFB0" class="path1" d="M352 0l-64 64 448 448-448 448 64 64 512-511.998-512-512.002z"></path>
	</symbol>
	
	<symbol id="ico_prev" viewBox="0 0 1024 1024">
		<title>Left arrow</title>
		<path fill="#B0AFB0" class="path1" d="M672 1024l64-64-448-448 448-448-64-64-512 511.998 512 512.002z"></path>
	</symbol>
	
	<symbol id="ico_search" viewBox="0 0 48 48">
		<title>Search</title>
		<path d="M44.8,44.8c-1.6,1.6-4.1,1.6-5.7,0L33,38.7c-3.3,2.2-7.2,3.3-11,3.3c-5.1,0-10.2-2-14.1-5.9
		C0,28.3,0,15.7,7.9,7.9C11.8,4,16.9,2,22,2c5.1,0,10.2,2,14.1,5.9c6.8,6.8,7.7,17.4,2.5,25.2l6.1,6.1C46.4,40.7,46.4,43.3,44.8,44.8
		z M22,7c-4,0-7.8,1.6-10.6,4.4c-5.8,5.8-5.8,15.4,0,21.2C14.2,35.4,18,37,22,37c4,0,7.8-1.6,10.6-4.4c5.8-5.8,5.8-15.4,0-21.2
		C29.8,8.6,26,7,22,7" />
	</symbol>
	
	<symbol id="ico_settings" viewBox="0 0 48 48">
		<title>Settings</title>
		<path d="M47.5 19.5c-.1-.7-.7-1.2-1.4-1.2l-3.1-.2c-.4-1.2-.8-2.3-1.4-3.4l2-2.3c.5-.5.5-1.3.1-1.8-1.7-2.5-3.8-4.7-6.4-6.4-.6-.4-1.3-.3-1.8.1l-2.3 2c-1.1-.6-2.2-1-3.4-1.4l-.2-3.1c0-.7-.5-1.3-1.2-1.4C27 .2 25.5 0 24 0c-1.5 0-3 .1-4.5.4-.7.1-1.2.7-1.2 1.4l-.2 3.1c-1.2.4-2.3.8-3.4 1.4l-2.3-2c-.5-.5-1.3-.5-1.8-.1C8.1 5.8 5.9 8 4.1 10.6c-.4.6-.3 1.3.1 1.8l2 2.3c-.6 1.1-1 2.2-1.4 3.4l-3.1.2c-.7 0-1.3.5-1.4 1.2C.2 21 0 22.5 0 24s.1 3 .4 4.5c.1.7.7 1.2 1.4 1.2l3.1.2c.4 1.2.8 2.3 1.4 3.4l-2 2.3c-.5.5-.5 1.3-.1 1.8 1.7 2.5 3.8 4.7 6.4 6.4.6.4 1.3.3 1.8-.1l2.3-2c1.1.6 2.2 1 3.4 1.4l.2 3.1c0 .7.5 1.3 1.2 1.4 1.5.3 3 .4 4.5.4s3-.1 4.5-.4c.7-.1 1.2-.7 1.2-1.4l.2-3.1c1.2-.4 2.3-.8 3.4-1.4l2.3 2c.5.5 1.3.5 1.8.1 2.5-1.7 4.7-3.8 6.4-6.4.4-.6.3-1.3-.1-1.8l-2-2.3c.6-1.1 1-2.2 1.4-3.4l3.1-.2c.7 0 1.3-.5 1.4-1.2.3-1.5.4-3 .4-4.5s-.2-3-.5-4.5zM19.7 34.7h-.1s-.1 0-.1-.1c-1.3-.6-2.6-1.4-3.6-2.4-1.1-1.1-1.9-2.3-2.4-3.6 0 0 0-.1-.1-.1v-.1c-.5-1.3-.8-2.8-.8-4.3s.3-3 .8-4.3v-.1s0-.1.1-.1c.6-1.3 1.4-2.6 2.4-3.6 1.1-1.1 2.3-1.9 3.6-2.4 0 0 .1 0 .1-.1h.1c1.3-.5 2.8-.8 4.3-.8s3 .3 4.3.8h.1s.1 0 .1.1c1.3.6 2.5 1.4 3.6 2.4 1.1 1.1 1.9 2.3 2.4 3.6 0 0 0 .1.1.1v.1c.5 1.3.8 2.8.8 4.3s-.3 3-.8 4.3v.1s0 .1-.1.1c-.6 1.3-1.4 2.5-2.4 3.6-1.1 1.1-2.3 1.9-3.6 2.4 0 0-.1 0-.1.1h-.1c-1.3.5-2.8.8-4.3.8s-3-.3-4.3-.8z" />
		<circle cx="24" cy="24" r="13" fill="none" stroke-width="3" stroke-miterlimit="10" />
	</symbol>
	
	<symbol id="ico_toggle" viewBox="0 0 48 48">
		<title>Toggle mobile menu</title>
		<path d="M11.5 16.5h25c1.4 0 2.5-1.1 2.5-2.5s-1.1-2.5-2.5-2.5h-25C10.1 11.5 9 12.6 9 14s1.1 2.5 2.5 2.5zM36.5 21.5h-25C10.1 21.5 9 22.6 9 24s1.1 2.5 2.5 2.5h25c1.4 0 2.5-1.1 2.5-2.5s-1.1-2.5-2.5-2.5zM36.5 31.5h-25C10.1 31.5 9 32.6 9 34s1.1 2.5 2.5 2.5h25c1.4 0 2.5-1.1 2.5-2.5s-1.1-2.5-2.5-2.5z" />
	</symbol>
	
	<symbol id="ico_user" viewBox="0 0 48 48">
		<title>User</title>
		<path d="M24,9.9c4.8,0,8.7,3.9,8.7,8.7c0,2.9-1.5,5.5-3.7,7.1c9.9,2.2,11.1,6.4,11.2,9.7c0,0.7-0.5,1.5-1.2,1.7
		c-1.7,0.4-5.7,1.1-15,1.1c-9.2,0-13.3-0.6-15-1.1c-0.7-0.2-1.2-1-1.2-1.7c0.1-3.3,1.3-7.5,11.2-9.7c-2.3-1.6-3.7-4.2-3.7-7.1
		C15.3,13.8,19.2,9.9,24,9.9 M24,4.9c-7.5,0-13.7,6.1-13.7,13.7c0,1.6,0.3,3.1,0.8,4.5c-5.3,2.6-8,6.6-8.2,12.1c-0.1,3.1,2,6,4.9,6.8
		c3.1,0.8,8.6,1.2,16.2,1.2c7.6,0,13.1-0.4,16.2-1.2c2.9-0.8,5-3.7,4.9-6.7c-0.2-5.5-2.9-9.5-8.2-12.1c0.5-1.4,0.8-3,0.8-4.5
		C37.7,11,31.5,4.9,24,4.9z" />
	</symbol>
	
</svg>