<svg version="1.1" xmlns="http://www.w3.org/2000/svg" xmlns:xlink="http://www.w3.org/1999/xlink" width="512" height="512">
  <path style="fill:#d94a39;" d="M 256 0 C 114.6151 3.7895613e-14 0 114.6151 0 256 C 0 397.3849 114.6151 512 256 512 C 397.3849 512 512 397.3849 512 256 C 512 114.6151 397.3849 -5.6843419e-14 256 0 z M 162.96875 50.4375 L 349.03125 50.4375 L 309.03125 332.28125 L 202.96875 332.28125 L 162.96875 50.4375 z M 257 351.46875 C 287.40521 351.46875 312.0625 376.12604 312.0625 406.53125 C 312.0625 436.93646 287.40521 461.5625 257 461.5625 C 226.59479 461.5625 201.9375 436.93646 201.9375 406.53125 C 201.9375 376.12604 226.59479 351.46875 257 351.46875 z " />
</svg>