<svg style="position: absolute; width: 0; height: 0;" width="0" height="0" version="1.1" xmlns="http://www.w3.org/2000/svg" xmlns:xlink="http://www.w3.org/1999/xlink">
	<defs>
		<symbol id="icon-google-plus" viewBox="0 0 16 16">
			<title>google-plus</title>
			<path d="M14.5 0h-13c-0.825 0-1.5 0.675-1.5 1.5v13c0 0.825 0.675 1.5 1.5 1.5h13c0.825 0 1.5-0.675 1.5-1.5v-13c0-0.825-0.675-1.5-1.5-1.5zM6 12c-2.212 0-4-1.787-4-4s1.788-4 4-4c1.081 0 1.984 0.394 2.681 1.047l-1.088 1.044c-0.297-0.284-0.816-0.616-1.594-0.616-1.366 0-2.481 1.131-2.481 2.525s1.116 2.525 2.481 2.525c1.584 0 2.178-1.137 2.269-1.725h-2.269v-1.372h3.778c0.034 0.2 0.063 0.4 0.063 0.663 0 2.287-1.531 3.909-3.841 3.909zM14 8h-1v1h-1v-1h-1v-1h1v-1h1v1h1v1z"></path>
		</symbol>
		
		<symbol id="icon-facebook" viewBox="0 0 16 16">
			<title>facebook</title>
			<path d="M14.5 0h-13c-0.825 0-1.5 0.675-1.5 1.5v13c0 0.825 0.675 1.5 1.5 1.5h6.5v-7h-2v-2h2v-1c0-1.653 1.347-3 3-3h2v2h-2c-0.55 0-1 0.45-1 1v1h3l-0.5 2h-2.5v7h4.5c0.825 0 1.5-0.675 1.5-1.5v-13c0-0.825-0.675-1.5-1.5-1.5z"></path>
		</symbol>
		
		<symbol id="icon-twitter" viewBox="0 0 16 16">
			<title>twitter</title>
			<path d="M16 3.538c-0.588 0.263-1.222 0.438-1.884 0.516 0.678-0.406 1.197-1.050 1.444-1.816-0.634 0.375-1.338 0.65-2.084 0.797-0.6-0.638-1.453-1.034-2.397-1.034-1.813 0-3.281 1.469-3.281 3.281 0 0.256 0.028 0.506 0.084 0.747-2.728-0.138-5.147-1.444-6.766-3.431-0.281 0.484-0.444 1.050-0.444 1.65 0 1.138 0.578 2.144 1.459 2.731-0.538-0.016-1.044-0.166-1.488-0.409 0 0.013 0 0.028 0 0.041 0 1.591 1.131 2.919 2.634 3.219-0.275 0.075-0.566 0.116-0.866 0.116-0.212 0-0.416-0.022-0.619-0.059 0.419 1.303 1.631 2.253 3.066 2.281-1.125 0.881-2.538 1.406-4.078 1.406-0.266 0-0.525-0.016-0.784-0.047 1.456 0.934 3.181 1.475 5.034 1.475 6.037 0 9.341-5.003 9.341-9.341 0-0.144-0.003-0.284-0.009-0.425 0.641-0.459 1.197-1.038 1.637-1.697z"></path>
		</symbol>
		
		<symbol id="icon-youtube" viewBox="0 0 40 16">
			<title>youtube</title>
			<path d="M5.375 2.647c0.003-0.014 0.005-0.023 0.006-0.028l0.016-0.118-0.74-0.004c-0.668-0.004-0.873 0-0.891 0.017-0.009 0.008-0.24 0.885-0.651 2.473-0.196 0.758-0.361 1.363-0.367 1.345s-0.24-0.883-0.522-1.922c-0.281-1.039-0.517-1.894-0.524-1.901-0.010-0.010-0.906-0.014-1.632-0.008-0.105 0.001-0.164-0.205 0.938 3.299 0.152 0.485 0.381 1.172 0.507 1.526 0.146 0.408 0.25 0.724 0.321 0.987 0.126 0.501 0.13 0.815 0.103 1.182-0.032 0.423-0.036 3.413-0.005 3.463 0.024 0.038 1.425 0.056 1.558 0.020 0.021-0.006 0.035-0.026 0.045-0.139 0.033-0.097 0.036-0.484 0.036-2.090v-2.051l0.090-0.283c0.059-0.185 0.206-0.672 0.328-1.082s0.269-0.9 0.327-1.090c0.529-1.724 1.033-3.419 1.047-3.516l0.011-0.079z"></path>
			<path d="M13.221 5.135l-0 0.107-0.017 0-0.009 2.953-0.009 2.863-0.229 0.233c-0.257 0.261-0.462 0.361-0.648 0.314-0.203-0.051-0.197 0.028-0.214-3.356l-0.016-3.115h-1.474v0.107h-0.017v3.38c0 3.621-0 3.619 0.184 3.982 0.146 0.29 0.36 0.431 0.725 0.479h0c0.481 0.064 1-0.154 1.481-0.622l0.209-0.203v0.351c0 0.303 0.009 0.353 0.064 0.368 0.090 0.025 1.206 0.027 1.326 0.002l0.1-0.021v-0.104l0.017-0.003v-7.736l-1.472 0.020z"></path>
			<path d="M9.483 6.661c-0.14-0.599-0.401-1.002-0.832-1.28-0.676-0.437-1.449-0.484-2.165-0.13-0.522 0.258-0.859 0.686-1.032 1.314-0.021 0.075-0.036 0.138-0.047 0.231-0.044 0.222-0.049 0.552-0.061 2.093-0.018 2.374 0.010 2.656 0.307 3.195 0.292 0.529 0.897 0.917 1.556 0.997 0.198 0.024 0.6-0.013 0.832-0.078 0.525-0.146 1.029-0.561 1.252-1.032 0.096-0.204 0.154-0.345 0.189-0.604 0.065-0.353 0.070-0.925 0.070-2.381-0-1.857-0.006-2.060-0.068-2.326zM7.802 11.5c-0.124 0.094-0.34 0.135-0.515 0.098-0.135-0.029-0.318-0.241-0.374-0.434-0.070-0.241-0.075-3.594-0.015-4.251 0.1-0.329 0.378-0.501 0.682-0.419 0.237 0.064 0.358 0.212 0.427 0.523 0.051 0.231 0.057 0.518 0.046 2.207-0.007 1.12-0.011 1.668-0.048 1.962-0.037 0.185-0.099 0.235-0.203 0.315z"></path>
			<path d="M35.944 8.346h0.712l-0.011-0.645c-0.011-0.592-0.020-0.659-0.099-0.82-0.125-0.253-0.309-0.366-0.601-0.366-0.351 0-0.573 0.17-0.678 0.518-0.045 0.148-0.092 1.167-0.058 1.255 0.019 0.049 0.121 0.058 0.735 0.058z"></path>
			<path d="M31.184 6.879c-0.095-0.191-0.272-0.286-0.477-0.278-0.16 0.006-0.337 0.073-0.508 0.203l-0.127 0.097v4.634l0.127 0.097c0.288 0.22 0.604 0.266 0.822 0.12 0.086-0.058 0.142-0.137 0.186-0.263 0.057-0.164 0.062-0.375 0.055-2.325-0.008-2.032-0.012-2.152-0.078-2.285z"></path>
			<path d="M40.014 4.791c-0.142-1.701-0.255-2.253-0.605-2.962-0.465-0.939-1.136-1.434-2.092-1.543-0.739-0.084-3.521-0.203-6.094-0.26-4.456-0.099-11.782 0.092-12.718 0.331-0.432 0.111-0.757 0.299-1.094 0.634-0.591 0.588-0.944 1.432-1.085 2.6-0.323 2.666-0.33 5.886-0.019 8.649 0.134 1.188 0.41 1.96 0.928 2.596 0.323 0.397 0.881 0.734 1.379 0.835 0.35 0.071 2.1 0.169 4.65 0.26 0.38 0.014 1.385 0.037 2.235 0.052 1.77 0.031 5.025 0.013 6.886-0.039 1.252-0.035 3.534-0.128 3.961-0.161 0.12-0.009 0.398-0.027 0.618-0.039 0.739-0.042 1.209-0.196 1.65-0.543 0.571-0.449 1.013-1.278 1.2-2.251 0.177-0.92 0.295-2.559 0.319-4.42 0.020-1.555-0.007-2.393-0.119-3.741zM22.27 4.175l-0.828 0.010-0.036 8.83-0.718 0.009c-0.555 0.008-0.724-0.001-0.737-0.036-0.010-0.025-0.021-2.016-0.026-4.424l-0.009-4.379-1.617-0.020v-1.38l4.779 0.019 0.020 1.36-0.828 0.010zM27.347 9.236v3.797h-1.308v-0.4c0-0.301-0.011-0.4-0.047-0.4-0.026 0-0.144 0.099-0.263 0.22-0.259 0.263-0.565 0.474-0.827 0.572-0.542 0.203-1.056 0.084-1.275-0.293-0.201-0.345-0.204-0.423-0.204-4.005v-3.29h1.307l0.010 3.098c0.010 3.044 0.011 3.1 0.084 3.224 0.097 0.164 0.244 0.209 0.478 0.144 0.138-0.038 0.232-0.105 0.455-0.327l0.282-0.28v-5.859h1.308v3.797zM32.449 12.491c-0.115 0.257-0.372 0.508-0.583 0.57-0.549 0.162-0.99 0.030-1.499-0.449-0.158-0.149-0.305-0.269-0.327-0.269-0.027 0-0.041 0.116-0.041 0.345v0.345h-1.308v-10.248h1.308v1.672c0 0.919 0.012 1.672 0.027 1.672s0.153-0.122 0.307-0.27c0.354-0.341 0.649-0.491 1.024-0.519 0.669-0.051 1.068 0.294 1.25 1.080 0.057 0.245 0.062 0.525 0.062 2.798-0 2.768-0 2.78-0.221 3.273zM37.984 10.971c-0.012 0.285-0.046 0.612-0.077 0.727-0.182 0.674-0.666 1.152-1.366 1.348-0.942 0.264-1.98-0.168-2.394-0.997-0.232-0.465-0.241-0.558-0.241-2.831 0-1.853 0.007-2.081 0.066-2.334 0.168-0.715 0.584-1.178 1.289-1.435 0.204-0.074 0.417-0.113 0.63-0.117 0.761-0.016 1.515 0.393 1.832 1.059 0.213 0.449 0.24 0.642 0.261 1.908l0.019 1.136-2.789 0.019-0.010 0.763c-0.015 1.077 0.058 1.408 0.349 1.603 0.244 0.165 0.62 0.152 0.824-0.027 0.192-0.168 0.246-0.349 0.265-0.877l0.017-0.463h1.347l-0.022 0.518z"></path>
		</symbol>
		
		<symbol id="icon-apple" viewBox="0 0 16 16">
			<title>apple</title>
			<path d="M12.367 8.501c-0.020-2.026 1.652-2.998 1.727-3.046-0.94-1.375-2.404-1.564-2.926-1.585-1.246-0.126-2.431 0.734-3.064 0.734-0.631 0-1.607-0.715-2.64-0.696-1.358 0.020-2.61 0.79-3.31 2.006-1.411 2.448-0.361 6.076 1.014 8.061 0.672 0.972 1.473 2.064 2.525 2.025 1.013-0.040 1.396-0.656 2.621-0.656s1.569 0.656 2.641 0.635c1.090-0.020 1.781-0.991 2.448-1.966 0.772-1.128 1.089-2.219 1.108-2.275-0.024-0.011-2.126-0.816-2.147-3.236zM10.353 2.555c0.558-0.677 0.935-1.617 0.832-2.555-0.804 0.033-1.779 0.536-2.356 1.212-0.518 0.6-0.971 1.557-0.85 2.476 0.898 0.070 1.815-0.456 2.373-1.132z"></path>
		</symbol>

		<symbol id="icon-android" viewBox="0 0 16 16">
			<title>android</title>
			<path d="M14 6c-0.55 0-1 0.45-1 1v4c0 0.55 0.45 1 1 1s1-0.45 1-1v-4c0-0.55-0.45-1-1-1zM2 6c-0.55 0-1 0.45-1 1v4c0 0.55 0.45 1 1 1s1-0.45 1-1v-4c0-0.55-0.45-1-1-1zM3.5 11.5c0 0.828 0.672 1.5 1.5 1.5v0 2c0 0.55 0.45 1 1 1s1-0.45 1-1v-2h2v2c0 0.55 0.45 1 1 1s1-0.45 1-1v-2c0.828 0 1.5-0.672 1.5-1.5v-5.5h-9v5.5z"></path>
			<path d="M12.472 5c-0.152-1.373-0.922-2.559-2.025-3.276l0.5-1.001c0.123-0.247 0.023-0.547-0.224-0.671s-0.547-0.023-0.671 0.224l-0.502 1.004-0.13-0.052c-0.446-0.148-0.924-0.229-1.42-0.229s-0.974 0.081-1.42 0.229l-0.13 0.052-0.502-1.004c-0.123-0.247-0.424-0.347-0.671-0.224s-0.347 0.424-0.224 0.671l0.5 1.001c-1.103 0.716-1.873 1.903-2.025 3.276v0.5h8.972v-0.5h-0.028zM6.5 4c-0.276 0-0.5-0.224-0.5-0.5s0.223-0.499 0.499-0.5c0 0 0.001 0 0.001 0s0.001-0 0.001-0c0.276 0.001 0.499 0.224 0.499 0.5s-0.224 0.5-0.5 0.5zM9.5 4c-0.276 0-0.5-0.224-0.5-0.5s0.223-0.499 0.499-0.5c0 0 0.001 0 0.001 0s0.001-0 0.002-0c0.276 0.001 0.499 0.224 0.499 0.5s-0.224 0.5-0.5 0.5z"></path>
		</symbol>

		<symbol id="icon-windows" viewBox="0 0 16 16">
			<title>windows</title>
			<path d="M0.005 8l-0.005-4.876 6-0.815v5.691zM7 2.164l7.998-1.164v7h-7.998zM15 9l-0.002 7-7.998-1.125v-5.875zM6 14.747l-5.995-0.822-0-4.926h5.995z"></path>
		</symbol>

		<symbol id="icon-instagram" viewBox="0 0 16 16">
			<title>instagram</title>
			<path d="M14.5 0h-13c-0.825 0-1.5 0.675-1.5 1.5v13c0 0.825 0.675 1.5 1.5 1.5h13c0.825 0 1.5-0.675 1.5-1.5v-13c0-0.825-0.675-1.5-1.5-1.5zM11 2.5c0-0.275 0.225-0.5 0.5-0.5h2c0.275 0 0.5 0.225 0.5 0.5v2c0 0.275-0.225 0.5-0.5 0.5h-2c-0.275 0-0.5-0.225-0.5-0.5v-2zM8 5c1.656 0 3 1.344 3 3s-1.344 3-3 3c-1.656 0-3-1.344-3-3s1.344-3 3-3zM14 13.5v0c0 0.275-0.225 0.5-0.5 0.5h-11c-0.275 0-0.5-0.225-0.5-0.5v0-6.5h1.1c-0.066 0.322-0.1 0.656-0.1 1 0 2.762 2.237 5 5 5s5-2.238 5-5c0-0.344-0.034-0.678-0.1-1h1.1v6.5z"></path>
		</symbol>

		<symbol id="icon-pinterest" viewBox="0 0 16 16">
			<title>pinterest</title>
			<path d="M8 1.069c-3.828 0-6.931 3.103-6.931 6.931 0 2.938 1.828 5.444 4.406 6.453-0.059-0.547-0.116-1.391 0.025-1.988 0.125-0.541 0.813-3.444 0.813-3.444s-0.206-0.416-0.206-1.028c0-0.963 0.559-1.684 1.253-1.684 0.591 0 0.878 0.444 0.878 0.975 0 0.594-0.378 1.484-0.575 2.306-0.166 0.691 0.344 1.253 1.025 1.253 1.231 0 2.178-1.3 2.178-3.175 0-1.659-1.194-2.819-2.894-2.819-1.972 0-3.128 1.478-3.128 3.009 0 0.597 0.228 1.234 0.516 1.581 0.056 0.069 0.066 0.128 0.047 0.2-0.053 0.219-0.169 0.691-0.194 0.787-0.031 0.128-0.1 0.153-0.231 0.094-0.866-0.403-1.406-1.669-1.406-2.684 0-2.188 1.587-4.194 4.578-4.194 2.403 0 4.272 1.712 4.272 4.003 0 2.388-1.506 4.313-3.597 4.313-0.703 0-1.362-0.366-1.588-0.797 0 0-0.347 1.322-0.431 1.647-0.156 0.603-0.578 1.356-0.862 1.816 0.65 0.2 1.337 0.309 2.053 0.309 3.828 0 6.931-3.103 6.931-6.931 0-3.831-3.103-6.934-6.931-6.934z"></path>
		</symbol>

		<symbol id="icon-skype" viewBox="0 0 16 16">
			<title>skype</title>
			<path d="M6.65 0.584c-0.025-0.016-0.053-0.028-0.078-0.041-0.028 0.006-0.053 0.009-0.081 0.016l0.159 0.025z"></path>
			<path d="M0.575 6.578c-0.006 0.028-0.009 0.056-0.012 0.081 0.016 0.025 0.025 0.050 0.041 0.075l-0.028-0.156z"></path>
			<path d="M15.419 9.416c0.006-0.028 0.009-0.056 0.016-0.084-0.016-0.025-0.025-0.050-0.041-0.075l0.025 0.159z"></path>
			<path d="M9.25 15.359c0.025 0.016 0.053 0.028 0.078 0.041 0.028-0.006 0.056-0.009 0.084-0.012l-0.162-0.028z"></path>
			<path d="M15.434 9.331c-0.006 0.028-0.009 0.056-0.016 0.084l-0.028-0.162c0.016 0.028 0.028 0.053 0.044 0.078 0.081-0.45 0.125-0.909 0.125-1.369 0-1.019-0.2-2.009-0.594-2.941-0.381-0.9-0.925-1.709-1.619-2.403s-1.503-1.238-2.4-1.619c-0.931-0.394-1.922-0.594-2.941-0.594-0.481 0-0.963 0.044-1.431 0.134 0 0-0.003 0-0.003 0 0.025 0.012 0.053 0.025 0.078 0.041l-0.159-0.025c0.028-0.006 0.053-0.009 0.081-0.016-0.644-0.341-1.366-0.525-2.097-0.525-1.194 0-2.319 0.466-3.163 1.309s-1.309 1.969-1.309 3.163c0 0.759 0.197 1.509 0.563 2.169 0.006-0.028 0.009-0.056 0.012-0.081l0.028 0.159c-0.016-0.025-0.028-0.050-0.041-0.075-0.075 0.428-0.112 0.866-0.112 1.303 0 1.019 0.2 2.009 0.594 2.941 0.381 0.9 0.925 1.706 1.619 2.4s1.503 1.238 2.403 1.619c0.931 0.394 1.922 0.594 2.941 0.594 0.444 0 0.887-0.041 1.322-0.119-0.025-0.016-0.050-0.028-0.078-0.041l0.162 0.028c-0.028 0.006-0.056 0.009-0.084 0.012 0.669 0.378 1.428 0.581 2.2 0.581 1.194 0 2.319-0.466 3.162-1.309s1.309-1.969 1.309-3.162c-0.003-0.759-0.2-1.509-0.569-2.175zM8.034 12.591c-2.684 0-3.884-1.319-3.884-2.309 0-0.506 0.375-0.863 0.891-0.863 1.15 0 0.85 1.65 2.994 1.65 1.097 0 1.703-0.597 1.703-1.206 0-0.366-0.181-0.772-0.903-0.95l-2.388-0.597c-1.922-0.481-2.272-1.522-2.272-2.5 0-2.028 1.909-2.791 3.703-2.791 1.653 0 3.6 0.913 3.6 2.131 0 0.522-0.453 0.825-0.969 0.825-0.981 0-0.8-1.356-2.775-1.356-0.981 0-1.522 0.444-1.522 1.078s0.775 0.838 1.447 0.991l1.769 0.394c1.934 0.431 2.425 1.563 2.425 2.625 0 1.647-1.266 2.878-3.819 2.878z"></path>
		</symbol>

		<symbol id="icon-linkedin" viewBox="0 0 16 16">
			<title>linkedin</title>
			<path d="M14.5 0h-13c-0.825 0-1.5 0.675-1.5 1.5v13c0 0.825 0.675 1.5 1.5 1.5h13c0.825 0 1.5-0.675 1.5-1.5v-13c0-0.825-0.675-1.5-1.5-1.5zM6 13h-2v-7h2v7zM5 5c-0.553 0-1-0.447-1-1s0.447-1 1-1c0.553 0 1 0.447 1 1s-0.447 1-1 1zM13 13h-2v-4c0-0.553-0.447-1-1-1s-1 0.447-1 1v4h-2v-7h2v1.241c0.412-0.566 1.044-1.241 1.75-1.241 1.244 0 2.25 1.119 2.25 2.5v4.5z"></path>
		</symbol>
	</defs>
</svg>