<svg version="1.1" xmlns="http://www.w3.org/2000/svg" xmlns:xlink="http://www.w3.org/1999/xlink">
<defs>
	<symbol id="icon-droplet" viewBox="0 0 16 16">
	<title>droplet</title>
	<path d="M13.51 7.393c-1.027-2.866-3.205-5.44-5.51-7.393-2.305 1.953-4.482 4.527-5.51 7.393-0.635 1.772-0.698 3.696 0.197 5.397 1.029 1.955 3.104 3.21 5.313 3.21s4.284-1.255 5.313-3.21c0.895-1.701 0.832-3.624 0.197-5.397zM11.543 11.859c-0.684 1.301-2.075 2.141-3.543 2.141-0.861 0-1.696-0.29-2.377-0.791 0.207 0.027 0.416 0.041 0.627 0.041 1.835 0 3.573-1.050 4.428-2.676 0.701-1.333 0.64-2.716 0.373-3.818 0.227 0.44 0.42 0.878 0.576 1.311 0.353 0.985 0.625 2.443-0.084 3.791z"></path>
	</symbol>
	<symbol id="icon-clock" viewBox="0 0 16 16">
	<title>clock2</title>
	<path d="M8 0c-4.418 0-8 3.582-8 8s3.582 8 8 8 8-3.582 8-8-3.582-8-8-8zM10.293 11.707l-3.293-3.293v-4.414h2v3.586l2.707 2.707-1.414 1.414z"></path>
	</symbol>
	<symbol id="icon-pandage" viewBox="0 0 16 16">
	<title>pandage</title>
	<path d="M14.902 1.098c-1.464-1.464-3.839-1.464-5.303 0l-8.5 8.5c-1.464 1.464-1.464 3.839 0 5.303s3.839 1.464 5.303 0l8.5-8.5c1.464-1.464 1.464-3.839 0-5.303zM14.5 2c0.276 0 0.5 0.224 0.5 0.5s-0.224 0.5-0.5 0.5-0.5-0.224-0.5-0.5 0.224-0.5 0.5-0.5zM13.5 1c0.276 0 0.5 0.224 0.5 0.5s-0.224 0.5-0.5 0.5-0.5-0.224-0.5-0.5 0.224-0.5 0.5-0.5zM14 3.5c0 0.276-0.224 0.5-0.5 0.5s-0.5-0.224-0.5-0.5 0.224-0.5 0.5-0.5 0.5 0.224 0.5 0.5zM12.5 2c0.276 0 0.5 0.224 0.5 0.5s-0.224 0.5-0.5 0.5-0.5-0.224-0.5-0.5 0.224-0.5 0.5-0.5zM11.5 1c0.276 0 0.5 0.224 0.5 0.5s-0.224 0.5-0.5 0.5-0.5-0.224-0.5-0.5 0.224-0.5 0.5-0.5zM12 3.5c0 0.276-0.224 0.5-0.5 0.5s-0.5-0.224-0.5-0.5 0.224-0.5 0.5-0.5 0.5 0.224 0.5 0.5zM10.5 2c0.276 0 0.5 0.224 0.5 0.5s-0.224 0.5-0.5 0.5-0.5-0.224-0.5-0.5 0.224-0.5 0.5-0.5zM3.5 11c0.276 0 0.5 0.224 0.5 0.5s-0.224 0.5-0.5 0.5-0.5-0.224-0.5-0.5 0.224-0.5 0.5-0.5zM4.5 12c0.276 0 0.5 0.224 0.5 0.5s-0.224 0.5-0.5 0.5-0.5-0.224-0.5-0.5 0.224-0.5 0.5-0.5zM2.5 10c0.276 0 0.5 0.224 0.5 0.5s-0.224 0.5-0.5 0.5-0.5-0.224-0.5-0.5 0.224-0.5 0.5-0.5zM3 12.5c0 0.276-0.224 0.5-0.5 0.5s-0.5-0.224-0.5-0.5 0.224-0.5 0.5-0.5 0.5 0.224 0.5 0.5zM1.5 11c0.276 0 0.5 0.224 0.5 0.5s-0.224 0.5-0.5 0.5-0.5-0.224-0.5-0.5 0.224-0.5 0.5-0.5zM1.5 14c-0.276 0-0.5-0.224-0.5-0.5s0.224-0.5 0.5-0.5 0.5 0.224 0.5 0.5-0.224 0.5-0.5 0.5zM2.5 15c-0.276 0-0.5-0.224-0.5-0.5s0.224-0.5 0.5-0.5 0.5 0.224 0.5 0.5-0.224 0.5-0.5 0.5zM3.5 14c-0.276 0-0.5-0.224-0.5-0.5s0.224-0.5 0.5-0.5 0.5 0.224 0.5 0.5-0.224 0.5-0.5 0.5zM4.5 15c-0.276 0-0.5-0.224-0.5-0.5s0.224-0.5 0.5-0.5 0.5 0.224 0.5 0.5-0.224 0.5-0.5 0.5zM5.5 14c-0.276 0-0.5-0.224-0.5-0.5s0.224-0.5 0.5-0.5 0.5 0.224 0.5 0.5-0.224 0.5-0.5 0.5zM7.854 11.854c-0.098 0.098-0.226 0.146-0.354 0.146s-0.256-0.049-0.354-0.146l-3-3c-0.195-0.195-0.195-0.512 0-0.707s0.512-0.195 0.707 0l3 3c0.195 0.195 0.195 0.512 0 0.707zM11.854 7.854c-0.098 0.098-0.226 0.146-0.354 0.146s-0.256-0.049-0.354-0.146l-3-3c-0.195-0.195-0.195-0.512 0-0.707s0.512-0.195 0.707 0l3 3c0.195 0.195 0.195 0.512 0 0.707zM12.5 5c-0.276 0-0.5-0.224-0.5-0.5s0.224-0.5 0.5-0.5 0.5 0.224 0.5 0.5-0.224 0.5-0.5 0.5zM13.5 6c-0.276 0-0.5-0.224-0.5-0.5s0.224-0.5 0.5-0.5 0.5 0.224 0.5 0.5-0.224 0.5-0.5 0.5zM14.5 5c-0.276 0-0.5-0.224-0.5-0.5s0.224-0.5 0.5-0.5 0.5 0.224 0.5 0.5-0.224 0.5-0.5 0.5z"></path>
	</symbol>
	<symbol id="icon-pingpong" viewBox="0 0 16 16">
	<title>pingpong</title>
	<path class="path1" d="M15 1.5c0 0.828-0.672 1.5-1.5 1.5s-1.5-0.672-1.5-1.5 0.672-1.5 1.5-1.5c0.828 0 1.5 0.672 1.5 1.5z"></path>
	<path class="path2" d="M15.16 13.287l-2.979-2.787c-0.496-0.39-0.343-0.5-0.146-1 0.001-0.001 0.001-0.002 0.001-0.003 0.95-2.098 0.466-4.772-1.392-6.63-1.238-1.238-2.839-1.866-4.39-1.866-1.384 0-2.729 0.5-3.742 1.513-2.148 2.148-1.99 5.789 0.354 8.132 1.238 1.238 2.839 1.866 4.39 1.866 0.776 0 1.54-0.157 2.239-0.474 0.002-0.001 0.003-0.001 0.005-0.002 0.249-0.098 0.404-0.181 0.543-0.181 0.141 0 0.266 0.085 0.457 0.327l2.787 2.979c0.136 0.174 0.328 0.262 0.521 0.262 0.168 0 0.337-0.067 0.473-0.202l0.939-0.939c0.292-0.292 0.265-0.739-0.059-0.994v0zM5.114 10.886l5.771-5.771c0.172 0.356 0.301 0.729 0.386 1.114l-5.045 5.045c-0.287-0.063-0.572-0.153-0.851-0.269-0.088-0.037-0.176-0.076-0.262-0.118v0z"></path>
	</symbol>
	<symbol id="icon-heart" viewBox="0 0 16 16">
	<title>heart3</title>
	<path d="M16 5.596c0 1.349-0.582 2.563-1.508 3.404h0.008l-5 5c-0.5 0.5-1 1-1.5 1s-1-0.5-1.5-1l-4.992-5c-0.926-0.841-1.508-2.054-1.508-3.404 0-2.538 2.058-4.596 4.596-4.596 1.349 0 2.563 0.582 3.404 1.508 0.841-0.926 2.054-1.508 3.404-1.508 2.538 0 4.596 2.058 4.596 4.596z"></path>
	</symbol>
	<symbol id="icon-arrow-right" viewBox="0 0 16 16">
	<title>arrow-right4</title>
	<path d="M5.5 0l-1 1 7 7-7 7 1 1 8-8-8-8z"></path>
	</symbol>
</defs>
</svg>
