<svg xmlns="http://www.w3.org/2000/svg" xmlns:xlink="http://www.w3.org/1999/xlink">	
	<symbol id="responsibility" viewBox="0 0 100 100">
		<path d="M93.1,60.9c-1.4-1.6-3.8-1.7-5.4-0.3L73.8,73c-0.8,0.7-2.5,1.7-5,2.4c-1.9,0.5-4.4,0.7-6.7,0.9H50.1
		c-2.1,0-3.8-0.6-3.8-2.7c0-2.1,1.7-2.7,3.8-2.7h16.1c2.1,0,3.8-1.7,3.8-3.8s-1.7-3.8-3.8-3.8H34.2c-7.9,0-13,4.9-13,4.9L6.1,83.2
		l15.3,14.1c4.2-4.2,10.5-8.7,11.3-9.3h26c0,0,6.3,0,10.1-1.9c2.4-1.2,5.2-2.8,7.4-5.1c0,0,0.1-0.1,0.1-0.1l16.3-14.7
		C94.3,64.9,94.5,62.4,93.1,60.9z M46.7,28.7c1.3,0,2.6-0.1,3.9-0.3v10.8L27.3,61c2-0.7,4.4-1.1,7-1.1l4.4,0.1L53,46.5l22.2,20.8
		l5.2-4.7L55.6,39.3v-9.2c0.8,0,1.5,0.1,2.3,0.1c8.7,0,15.5-2.5,20.2-7.5c7.3-7.6,7-18.1,7-18.5l-0.1-2.3l-2.3-0.1
		c-0.8,0-1.5,0-2.2,0c-16.2,0-23.6,7.6-27,14.6c-0.7-1.9-1.7-3.9-3.3-5.8c-4.5-5.3-11.8-7.9-21.8-7.9c-0.8,0-1.6,0-2.5,0.1l-2.6,0.1
		l0.2,2.6C24.2,13.5,30,28.7,46.7,28.7z M74.5,19.3c-3.7,3.9-9.2,5.9-16.3,5.9C61.8,20.9,68.7,14.1,79.8,8
		C79.3,11.1,78,15.7,74.5,19.3z M75.3,7.1c-9.4,5.5-15.4,11.4-18.9,15.5C57.9,17.2,62.2,8.9,75.3,7.1z M46.3,13.8
		c2.1,2.4,2.9,5.2,3.3,7.4C46.8,17.7,41.8,13,33.3,8C39.2,8.7,43.6,10.6,46.3,13.8z M47.7,23.7c-0.3,0-0.7,0-1,0c0,0,0,0,0,0
		c-11.5,0-15.8-9-17.3-14.5C39.5,14.8,45,20.2,47.7,23.7z" />
	</symbol>
	
	<symbol id="ourstories" viewBox="0 0 112 112">
		<path d="M91.9,91.4c-0.5-0.5-0.6-1-0.5-1.6c-1,0.6-2,0.9-3.1,0.9c-1.1,0-2.1-0.3-3.1-0.9c0.1,0.5,0,1.1-0.5,1.6
		c-7,1.4-12.3,7.6-12.3,13.3c0,0.1,0,3.8,0,3.9h31.7c0-0.1,0-3.8,0-3.9C104.2,99.1,99,92.8,91.9,91.4z M72.3,75.3
		c0-5.3-3.2-8.7-7.2-8.7c-3.9,0-7.1,3.4-7.1,8.7c0,5.3,3.2,10.4,7.1,10.4C69.1,85.7,72.3,80.5,72.3,75.3z M76.7,93
		c-2.1-2-4.9-3.6-8-4.2c-0.5-0.5-0.6-1-0.5-1.6c-1,0.6-2,0.9-3.1,0.9c-1.1,0-2.1-0.3-3.1-0.9c0.1,0.5,0,1.1-0.5,1.6
		c-7,1.4-12.3,7.6-12.3,13.3c0,0.1,0,3.8,0,3.9h21.2c0-0.7,0-1.3,0-1.3C70.5,100.3,73,96,76.7,93z M22.7,80.8c5.4,0,9.9-7,9.9-14.3
		c0-7.3-4.4-12-9.9-12c-5.4,0-9.9,4.7-9.9,12C12.8,73.8,17.2,80.8,22.7,80.8z M27.6,85.2c-0.7-0.6-0.8-1.4-0.7-2.2
		c-1.3,0.8-2.8,1.3-4.2,1.3c-1.5,0-2.9-0.5-4.2-1.3c0.1,0.7-0.1,1.5-0.7,2.2C8,87.1,0.8,95.7,0.8,103.5c0,0.2,0,5.2,0,5.4h43.8
		c0-0.1,0-5.2,0-5.4C44.6,95.7,37.3,87.1,27.6,85.2z M76.4,30.1c-2.1,0-3.8,1.7-3.8,3.8c0,2.1,1.7,3.8,3.8,3.8c2.1,0,3.8-1.7,3.8-3.8
		C80.2,31.8,78.5,30.1,76.4,30.1z M91.1,30.1c-2.1,0-3.8,1.7-3.8,3.8c0,2.1,1.7,3.8,3.8,3.8c2.1,0,3.8-1.7,3.8-3.8
		C94.9,31.8,93.2,30.1,91.1,30.1z M95.5,77.9c0-5.3-3.2-8.7-7.2-8.7c-3.9,0-7.1,3.4-7.1,8.7c0,5.3,3.2,10.4,7.1,10.4
		C92.3,88.2,95.5,83.1,95.5,77.9z M76.2,4.2c-20,0-36.3,12.7-36.3,28.4c0,6.5,2.8,12.7,7.9,17.7l-8.1,18.6l21.6-10.4
		C66,60.1,71,61,76.2,61c20,0,36.3-12.7,36.3-28.4C112.4,16.9,96.2,4.2,76.2,4.2z M76.2,56c-5,0-9.7-0.9-14.1-2.5l-1-0.4l-11.4,5.5
		l4.2-9.6l-1.4-1.2c-4.9-4.2-7.5-9.6-7.5-15.2c0-12.9,14-23.4,31.3-23.4s31.3,10.5,31.3,23.4C107.4,45.5,93.4,56,76.2,56z M61.7,30.1
		c-2.1,0-3.8,1.7-3.8,3.8c0,2.1,1.7,3.8,3.8,3.8c2.1,0,3.8-1.7,3.8-3.8C65.5,31.8,63.8,30.1,61.7,30.1z"/>
	</symbol>
	
	<symbol id="whatwedo" viewBox="0 0 101 101">
		<path d="M41,95.4c0,0,0.5,0.6,2,0.8l3.1,3c0,0,0.5,1,4.2,0.9c4.1,0,4.7-1,4.7-1l3.3-2.9c0.6,0,1.6-0.1,2-0.7l2-2.4
		l-23.3,0L41,95.4z M73.1,9.7c-6-6.3-14-9.7-22.5-9.8C33.2,0,18.9,14.7,18.9,32.9c0,7.1,2.1,13.9,6.3,19.7l0.1,0.1
		c0.2,0.3,2,2.5,3.1,3.7c6.4,7.9,9.5,14.1,9.5,18.9c-1.3,0.5-2.2,1.7-2.2,3.1c0,1.8,1.5,3.3,3.3,3.3h23.3c1.8,0,3.3-1.5,3.3-3.3
		c0-1-0.5-2-1.3-2.6c-0.2-5.4,2.8-12,8.8-19.6c1.1-1.1,2.7-3.3,3-3.6c4.1-5.7,6.3-12.5,6.3-19.6C82.3,24.3,79.1,16,73.1,9.7z
		 M70.4,48.4c-0.7,0.9-1.9,2.5-2.5,3.1l-0.2,0.2c-6.4,8-9.8,15.1-10.3,21.6l-12.6,0c-0.6-6.1-4.2-13-11.1-21.5l-0.2-0.2
		c-0.6-0.6-1.9-2.3-2.6-3.2c-3.2-4.5-4.9-9.9-4.9-15.6C25.9,18.6,37,7,50.7,7c6.6,0,12.8,2.7,17.4,7.6c4.7,4.9,7.3,11.5,7.2,18.4
		C75.3,38.6,73.6,44,70.4,48.4z M39.1,84.6v5.6h23.1v-5.6H39.1z"/>
	</symbol>
	
	<symbol id="whoweare" viewBox="0 0 98 98">
		<path d="M10.5,57.6c0.8,0.6,2.1,0.3,2.8,1.3c0.6,0,0.8-0.2,1.1-0.3c-0.7-0.7-1.6-0.9-2.5-1.2
		C11.5,57.1,10.6,56.6,10.5,57.6z M37.9,41.4c0.6,0,0.8-0.4,1.2-0.5c0.2-0.6-0.2-1.1,0-1.7c-0.6-0.9-1,0.4-1.5,0.4
		c0.1,0.5,0.1,1,0,1.3C37.7,41,37.8,41.3,37.9,41.4z M14.8,59.6c0.4,0.2,0.7,0.2,1.1,0.2c0.1-0.2,0-0.3,0-0.5
		c0.1-0.1,0.3,0.1,0.4-0.1C16,58.9,14.7,58.6,14.8,59.6z M39.2,38.8c0.2,0.2,0.3,0.4,0.4,0.7c0.2,0,0.4,0,0.6,0.2
		c-0.1,0.1-0.1,0.3,0,0.5c-0.1,0.1-0.2,0.3-0.3,0.3c0.2,0.4-0.2,0.5-0.1,0.8c0.1,0.1,0.3,0,0.3,0.2c-0.1,0.4-0.6,0.3-0.6,0.8
		c0.1,0.2,0.4,0.2,0.7,0.1c0.4-0.4,1.1-0.4,1.7-0.5c0.6-0.5,0.4-1.8-0.3-2.1c-0.2-1-0.8-1.3-1.2-1.8c0.1-0.3,0.2-0.6,0.1-1.2
		c-0.1-0.1-0.3,0.1-0.5,0c0-0.2,0-0.2-0.1-0.4c-0.6-0.1-1,0.3-1.2,0.9c0.1,0.4,0.3,0.6,0.5,0.8C39.2,38.4,39.2,38.6,39.2,38.8z
		 M59.8,25.6c0.2,0.3,0.2,0.5,0.4,0.7c0.4-0.2,1.2,0.2,1.2-0.6c-0.1-0.1-0.2,0.1-0.3,0c-0.5-1.1-0.1-2.3,0.6-2.5
		c0.1-0.9,0.9-1,1.3-1.5c0,0.1,0.2,0,0.2,0.1c0.7-0.8,1.6-0.5,2.3-1.1c0-0.4-0.2-0.5-0.3-0.8c-0.6-0.4-1,0.3-1.4,0.5
		c-0.2,0.1-0.5,0-0.7,0.1c-0.4,0.2-0.8,0.6-1.3,0.7c-0.3,0.2-0.8,0-1,0.1c-0.3,0.2-0.3,0.6-0.5,0.9c-0.1,0.2-0.3,0.4-0.3,0.5
		c0,0,0.1,0.1,0,0.1c-0.3,0.4-0.6,0.7-0.7,1.2c0.1,0,0,0.4,0.1,0.4c-0.2,0.2-0.5,0.4-0.4,0.7C59.3,25.5,59.6,25.4,59.8,25.6z
		 M62.4,75.4c-0.4,0.1-0.2,1-0.6,1.2c0,0.2,0.1,0.3,0.1,0.5c-0.1,0-0.1,0.1-0.1,0.1c-0.7-0.1-0.9,0.6-1.1,1.2c0.3,1.1-0.1,2.3,0,3.4
		c0.4,0.3,0.5,1.1,0.9,1.1c0.5,0,0.6-1.1,0.9-1.7c-0.2-1.2,0.6-1.8,0.5-3c0.3-0.5,0.2-1.2,0.4-1.8C63,76.1,62.8,75.4,62.4,75.4z
		 M83.6,59.1c0.4,0.6,1-0.2,0.8-0.8C84,58.5,83.7,58.5,83.6,59.1z M88.5,55.7c-0.8-0.3-1,0.6-0.8,1.3c0.2,0,0.3,0.2,0.5,0.1
		C88.4,56.6,88.6,56.3,88.5,55.7z M48.5,1.3c-26.5,0-48,21.5-48,48c0,26.5,21.5,48,48,48s48-21.5,48-48C96.5,22.8,75,1.3,48.5,1.3z
		 M12.9,29c0,0.1,0,0.1,0,0.2c0,0.1-0.1,0.1-0.2,0.2C12.8,29.2,12.8,29.1,12.9,29z M12.6,29.6c0.1,0.1,0.2,0.1,0.1,0.2
		c-0.2,0,0,0.1,0,0.2c-0.1,0-0.2,0-0.3,0C12.4,29.8,12.5,29.7,12.6,29.6z M13.5,67.1c0,0.1-0.5,1.4-0.6,1.5c-0.1,0.1-0.2,0-0.2,0.1
		c0,0.1,0,0.2,0,0.4c-1-1.8-1.8-3.6-2.6-5.6c0,0,0,0,0,0c0.1,0.2,0.4,0.3,0.6,0.6c0.6,0.6,1.4,1.5,2.1,0.8
		C13.6,65.5,13.7,66.1,13.5,67.1z M48.5,90.3c-8.4,0-16.2-2.5-22.7-6.9c0-0.2-0.1-0.4-0.1-0.6c0.2-0.5,0.6-0.8,0.8-1.2
		c0.8-0.3,1.4-0.8,2.2-1c0.2-1.1,0.2-2.4,0.7-3.2c0-0.5,0-1-0.1-1.5c0.2-0.1,0.4-0.2,0.6-0.4c0-0.3,0-0.6,0.1-0.8
		c0.7-0.1,0.6-1.1,0.8-1.8c-0.1-0.3-0.2-0.5-0.3-0.8c-0.6-0.2-1.1-0.8-1.6-1c-0.7-0.4-1.1-0.9-1.7-0.6c-0.6-0.5-1.3-0.8-2-1.3
		c-0.4,0.1-0.7,0.3-1.1,0.3c0.1-0.5,0.3-0.8,0.5-1.1c-0.1-0.6-0.5-0.8-0.8-1.3c-0.9-0.2-1.5-1.3-2.5-1.5c-0.2-0.3-0.4-0.4-0.6-0.7
		c-0.1,0-0.2-0.1-0.3-0.1c-0.4-0.8-1-0.9-1.6-1c-0.5,0.4-0.6,0.1-1.1-0.1c-0.1-0.1-0.4,0-0.5-0.1c-0.3-0.2-0.3-0.5-0.6-0.5
		c-0.4,0.1-0.3,0.8-0.7,0.7c0-0.2-0.1-0.6-0.1-0.9c-0.5,0.1-0.6,0.8-1.2,1.1c-0.3-0.1-0.6,0.2-0.9,0.4c-0.2-0.1-0.2-0.4-0.4-0.4
		c-0.9,0-1.8,0.1-1.9-0.8c-0.1-0.4,0.3-1.2,0-2c-0.2-0.1-0.3-0.4-0.6-0.6c-0.4-0.2-1,0.1-1.4-0.4c-0.3-0.9,0.3-1.3,0.1-2.2
		c-0.3-0.3-0.7-0.3-0.9-0.1c-0.3-1.3-0.5-2.6-0.6-3.9c0.2,0,0.3,0,0.5,0.1c0.1-0.1,0.1-0.3,0.2-0.5c0.7-0.3,1.1,0.4,1.8,0.2
		c0,0.2,0.1,0.1,0.2,0.2c0.3,0.9,0.8,1.6,1.3,2.1c0.4-0.9-0.4-1.8-0.4-2.8c0.2-0.4,0.2-0.5,0.3-1c1-0.5,1.9-1.6,1.4-3.1
		c0.3,0,0.3,0.1,0.5,0c0-0.2,0-0.3,0.1-0.5c0.3-0.9,1.1-1.2,1.6-1.9c0.1-0.2-0.1-0.3-0.1-0.6c1,0,1-1.2,2-1.2c0.3-0.2,0.1-1.1,0-1.4
		c0.2-0.5,0.7-0.7,0.6-1.4c-0.9-0.1-1.6,0.8-2.5,0.8c0.5-0.1,0.8-1,1.4-1.2c0.7-0.2,1.5,0.3,2.1,0c0.3-0.1,0.4-0.4,0.7-0.6
		c0.4-0.2,0.8-0.2,1-0.9c0.1-0.3,0-0.9-0.2-1.1c-0.3-0.1-0.7,0.1-0.9-0.1c0-0.3,0.4-0.2,0.3-0.6c-0.1-0.1-0.3,0-0.4,0
		c-0.2-0.5-0.6-0.7-0.9-1.1c-0.5-1.3-0.7-2.7-1.8-2.9c-0.1,0.5-0.1,1.2-0.8,1.3c-0.7-0.4-0.5-1.5-0.9-2.1c-0.2-0.3-0.7-0.3-1-0.6
		c-0.1-0.1-0.1-0.3-0.3-0.4c-0.7,0.1-1.1-0.3-1.9,0.1c-0.2,0.4,0,0.7,0.2,0.9c0.3,1.5-0.1,2.2,0.3,3.4c-0.2,0.8-1.1,1.4-0.5,2.6
		c-0.2,0.2-0.1,0.9-0.5,0.9c-0.6,0-0.7-1.7-1-2.5c-0.2-0.1-0.5-0.3-0.8-0.5c0.5-1.5,1-2.9,1.6-4.4c0.1,0.3,0.1,0.5,0.3,0.5
		c0.2-0.3,0-0.7-0.2-0.9c0.2-0.5,0.5-1.1,0.8-1.6c0.3,0.2,0.8,0,1.2-0.1c0.3,0.4,0.6,0.6,0.9,1c0.9,0.2,1.4,1.6,2.5,1.2
		c-0.1-0.7-0.7-0.6-0.9-1.2c0.5-0.2,0.6,0.3,1.1,0.2c0.6-0.5,0.1-1.5-0.6-1.4c-0.1-0.3-0.2-0.6-0.3-0.9c0.6-0.3,1.1,0.5,1.7,0.5
		c0.2-0.4,0.3-0.9,0.5-1.3c-0.2-0.3-0.6-0.3-0.7-0.7c-0.5-0.4-1.2-0.4-1.6-1.2c0-0.2,0.1,0.1,0.1-0.1c-0.1-0.5-0.4-0.8-0.7-1.1
		c1.1-1.6,2.3-3.1,3.6-4.5c0.4,0.7,0.7,1.4,1.2,1.9c-0.1,0.7,0.1,1.3,0.4,1.7c1-0.8,1.8,0.8,1.8,1.9c-0.2,0.2-0.5,0.5-0.2,0.8
		c-0.3,0.4-1,0.7-1,1.3c0,0.8,0.8,1.1,1.1,1.5c0.1,1,0.4,1.4,0.5,2.5c0.8,0.4,1.7,0.4,2.1,1.5l0.6-0.1c0.1-0.1,0.2-0.3,0.3-0.4
		c0-0.8,0.2-1.4,0.3-2.1c0.7-0.5,0.5-1.7,1.4-1.8c0.1,0,0.3,0.1,0.4,0c0.3-0.1,0.3-0.7,0.6-0.9c0.3-0.3,0.7-0.3,1-0.6
		c0.1-0.2,0.1-0.5,0.3-0.6c1.5,0,2.4-0.9,3.5-1.5c0.1-0.2-0.2-0.5-0.3-0.6c-0.3,0.1-0.7,0.2-0.8-0.1c0.4-0.6,0.8,0.1,1.4,0
		c0.1-0.7-0.6-1.2-0.5-2.1c-0.1-0.1-0.5,0.1-0.5-0.3c0.3-0.3,0.7,0.4,1.2,0.3c0.1-0.3,0.4-0.7,0.4-1.2c0-0.2-0.1-0.5-0.1-0.7
		c0-0.1,0.1-0.2,0.2-0.3c0.1-0.5-0.1-0.8-0.2-1.2c0.2-0.1,0.5-0.2,0.7-0.3c-0.1-0.7-0.5-1-0.9-1.1c-0.3-1.2,0.6-1.6,0.8-2.4
		c1-0.3,1.5-1.1,2-2c-0.2-0.2-0.4,0-0.7,0c-0.6-0.8-2.5,0-3.1,0.3c-0.1-0.2,0.1-0.3,0-0.5c-0.1-0.2-0.5-0.1-0.6-0.3
		c0.3-0.1,0.8-0.1,0.9-0.4c-0.3-0.7-1.1-0.8-1.5-1.3c-0.2,0-0.5,0.1-0.7,0.1c0,0-0.1,0-0.1,0C35.8,9.8,42,8.3,48.5,8.3
		c11.2,0,21.4,4.5,28.8,11.9c-0.5,0.5-1.7,0.6-2.3,0.3c-0.3,0.1-0.5,0.4-0.8,0.6c-0.7,0.5-1.7,0.4-2,1c-0.1,0.3,0.2,0.4,0.1,0.8
		c-0.6,0.3-1.8,0.2-2.3,0.7c-0.1,0.3,0.2,0.3,0.2,0.6c0.7,0.1,1.1,1,1,1.9c-0.2-0.4-0.5-0.8-0.7-1.2c-0.5-0.4-1.6-0.8-1.9,0.1
		c0.1,0.5,0.5,0.4,0.6,0.9c-0.3,0.1-0.6-0.1-0.8-0.3c0-0.2,0.2-0.6,0-0.9c-0.4,0-0.5,0.2-0.7,0.4c0,0.4,0.1,0.8-0.1,0.8
		c0.3,0.4,0.3,1.2,0.6,1.8c0.1-0.1,0.7-0.4,0.9,0c-0.5-0.1-0.7,0.2-0.9,0.4c0.1,0.3,0,0.5,0,0.8c-0.4,0.2-0.6,0.9-1.1,0.8
		c0.3-0.5,0.5-1.1,0.6-1.8c-0.1-0.5-0.4-1-0.5-1.6c0-0.5,0.4-1,0.2-1.8c-0.1-0.2-0.4-0.7-0.6-0.8c-0.4-0.1-1,0.7-1.2,1
		c-0.1,0.1-0.2,0.4-0.2,0.5c-0.2,0.9,0.4,1.9,0.5,2.7c-0.4,0-0.7-0.3-1-0.6c-0.4-0.1-0.6,0-1,0c-0.7-0.1-1-1-1.5-0.7
		c-0.1,0.6,0.6,0.6,0.4,1.3c-0.2,0-0.4,0-0.6-0.1c-0.5,0.6-0.9,0.1-1.3,0.2c-0.1,0-0.4,0.1-0.7,0.1c-0.4,0.1-0.6,0.4-0.9,0.7
		c-0.2,0.1-0.4,0.2-0.6,0.3c-0.4,0.2-0.6,0.9-1,0.6c-0.1-0.5,0.2-0.5,0.2-0.9c-0.3-0.4-0.7-0.9-1.1-0.4c0,0.7,0.1,1.3-0.2,1.7
		c-0.7,0.2-0.9,0.9-1.2,1.5c-0.3-0.1-0.4-0.1-0.6,0c-0.2,0.1-0.1,0.6-0.3,0.6c-0.3-0.1-0.2-0.3-0.3-0.5c-0.3-0.5-0.8-0.7-1-1.5
		c1,0.6,2.3,0.5,2.7-0.9c-0.3-0.4-0.6-0.4-1-0.6c-0.4-1-1.3-1.4-2.2-1.3c-0.2-0.3-0.4-0.2-0.7-0.3c-0.1-0.1-0.2-0.3-0.3-0.4
		c-0.5,0.1-0.8,0.2-1.1-0.1c-0.6,0.3-1.5,0-2.1,0.7c-0.2,0-0.2-0.1-0.4-0.1c-0.5,1-1.8,1.2-2.1,2.2c-0.7,0.2-1.2,1.1-1,2.2
		c-0.2,1.2-1.1,2-1.7,2.5c0.2,0.7,0.2,1.8,0.3,2.5c0.1,0.3,0.4,0.1,0.7,0.3c0.2,0.1,0.1,0.3,0.3,0.3c0.4,0,0.6-0.4,0.9-0.7
		c0.2,0.2,0.5,0.4,0.8,0.3c0.2,0.4,0.4,0.7,0.8,0.8c0.4-0.6,0.6-1.4,0.8-2.2c-0.1-0.3-0.4-0.5-0.6-0.7c-0.4-1.6,1.3-1.8,1.4-3.2
		c0.2-0.3,0.7-0.8,1-0.4c0.1,0.1,0,0.3,0.1,0.4c-0.6,0.9-1.5,1.7-1,3.5c0.3,0,0.5,0.5,0.9,0.6c0.4,0.1,0.8-0.3,1.2-0.3
		c0.1,0,0.1,0.2,0.1,0.2c0.1,0,0.3-0.2,0.3,0c-0.1,0-0.1,0.2-0.1,0.3c-0.5-0.1-1.5,0.1-1.4,0.6c0,0.2,0.4,0.4,0.4,0.6
		c0.2,0.7-0.4,0.9-0.9,0.5c-0.4,0.1-0.3,0.8-0.3,1.4c-0.5,0.5-1.1,0.4-2.1,0.5c-0.3-0.7-0.7-1.7-1.3-1.9c-0.4-0.2-0.8,0.3-1,0.5
		c-0.2,1,1,2.6-0.4,2.5c-0.3,0.6-1,0.9-1.1,1.7c-0.7,0.2-0.9,1-1.5,1.3c0-0.2-0.1-0.1-0.2-0.2c-0.1,0.6-0.9,0.1-1,0.8
		c0.5,0.5,1,0.8,1.3,1.5c-0.1,0.3,0,0.9-0.1,1.2c-0.8,0.2-2.2-0.2-2.8,0.5c0.2,0.6,0.2,1,0.2,1.5c0,0.5,0,1.1,0.1,1.8
		c0.4,0.3,0.9,0.6,1.4,0.8c0.1-0.1,0.1-0.2,0.3-0.2c1.1,0.2,2-0.7,1.7-2.1c0.1-0.1,0.2-0.2,0.3-0.2c0.4-0.3,0.8-0.7,0.9-1.5
		c0.5-0.2,0.8-0.4,1.3-0.1c0.5-0.1,0.7-0.8,1.3-0.7c0.6,0.1,1.2,1.2,1.1,2c0.1,0.1,0.2,0.2,0.3,0.3c0.2,0.4,0.4,1.1,1,0.9
		c0.1-0.2,0.2-0.5,0.1-0.8c0,0,0,0,0.1-0.1c0.1-0.1,0.2-0.1,0.2-0.3c-0.4-0.3-0.6-0.8-0.7-1.6c0.7-0.2,1.1,0.5,1.2,1.5
		c0.1,0.1,0.2,0.3,0.3,0.4c0.4,0.5,0.8,1.1,0.9,2.1c0.7-0.1,0.6-1.3,0.5-2c0,0,0.1-0.1,0.1-0.1c0.3-0.3,0.6-0.6,1-0.4
		c0,0.2,0,0.3,0,0.4c0,0.4,0,0.7,0.1,1.3c0.2,0.3,0.5,0.6,0.7,0.9c0.7,0,1.5-0.1,1.9,0.2c0.3-0.1,0.4-0.3,0.7-0.4
		c0.2,1-0.1,1.8-0.2,2.7c-0.4,0.2-0.8-0.1-1.2-0.1c-0.2,0-0.4,0.3-0.7,0.3c-1.3,0.2-2.6-1.7-3.7-0.5c0,0.2,0,0.5,0,0.6
		c-0.4,0.3-0.8-0.3-0.9-0.6c-0.4-0.2-1-0.4-1.6-0.7c0-0.6-0.1-0.8-0.1-1.7c-0.2-0.4-0.8-0.3-1.2-0.4c-0.2,0.3-0.8,0.3-1,0.1
		c-0.9,0.6-2.5,0.8-3.4,1.2c-0.3-0.2-0.6-0.5-1-0.2c-0.2,0.9-0.8,1.2-1.2,1.9l0.1,1c-0.1,0.3-0.4,0.4-0.5,0.7c-0.5,0.4-1,1.1-1.3,1.5
		c0.2,0.6-0.6,1.1-0.7,1.7c0,0.2,0.1,0.3,0.2,0.6c0.1,0.4,0.1,0.8,0.2,1.2c0.2,0.8,0,1.3-0.1,2.1c0,0.9,0.4,1.1,0.7,1.4
		c0.3,1.1,1.2,1.4,1.5,2.5c0.4,0.1,0.5,0.7,0.7,0.9c0.4,0.3,0.8,0.5,1.3,0.4c0.3-0.4,0.9-0.3,1.4,0c0.7-0.2,1.5-0.3,2.1-0.8
		c0.2,0.2,0.3,0,0.6,0c0.3,0.6,0.9,0.7,1.6,0.7c0.1,0.2,0.2,0.5,0.4,0.7c0.1,0.8-0.2,1.2-0.3,1.8c0.5,1.2,1.6,1.6,1.6,3.1
		c0.3,0.4,0.5,0.7,0.6,1.1c0.6,1.9-0.8,2.9-0.4,4.6c0.1,0.5,0.4,0.9,0.6,1.4c0.2,0.6,0.4,1.2,0.5,1.9c0.3,1.1,0.5,2.8,1,3.5
		c0.4-0.1,0.5,0.8,0.6,1.5c0.7,1.5,2.9,0.5,4.1,0.2c0-0.2,0.1-0.4,0.1-0.6c0.8-0.6,1.2-1.8,1.7-2.8c0-0.6,0-0.6-0.1-1.1
		c0.3-0.3,0.5-0.4,0.6-0.7c0.2-0.7-0.1-1.1-0.2-1.6c-0.1-0.5,0.5-1.1,0.8-1.5c0.2-0.2,0.4-0.6,0.6-0.8c0.7-0.6,0.5-1.3,0.4-2.6
		C59,75.3,59.1,75,59,74.7c-0.2-0.6-0.7-1-0.6-1.8c0-0.5,0.5-2,0.6-2.3c0.2-0.5,0.9-1,1.4-1.6c0.4-0.5,0.7-1.1,1-1.5
		c0.2-0.9,0.3-1.8,0.7-2.4c0-0.8,0.3-1.1,0.5-1.6c-1-0.6-1.5,0.5-2.3,0.6c-0.5,0-0.6-0.3-0.9-0.6c-0.5-0.4-0.9-0.6-1.2-1.2
		c0-0.3-0.3-0.6-0.3-0.9c-0.5-0.5-0.9-1.4-1.2-2.2c-0.5-1.2-1.1-2.4-1.4-3.5c0-0.1-0.2,0.1-0.2-0.2c0.5-0.5,0.9,0.7,1.1,1.2
		c0.4,0.9,1.1,0.9,1.1,2c0.3,0.5,0.7,0.8,1.1,1.2c0.4,0.7,0.4,1.8,0.6,2.8c0.8,0.9,1.8-0.3,2.8-0.3c0.5-0.9,1.3-1.5,2.4-1.8
		c0.3-1,1-1.4,0.9-2.8c-0.3-0.4-0.7-0.6-1-0.8c-0.2-0.3-0.3-0.7-0.7-0.8c-0.2,0.5-0.3,0.8-0.7,0.8c-0.5,0-0.5-0.6-0.9-0.7
		c-0.2-0.1-0.3,0.1-0.5-0.1c-0.1-0.2-0.1-0.5-0.1-0.8c-0.2-0.4-0.6-0.5-0.7-1.1c0.9-0.3,1.2,1.3,1.9,1.6c0.3,0.1,0.7,0,1.1-0.1
		c0.1,0.1,0.2,0.2,0.3,0.4c1.2,0.2,2.3,0.7,3.7,0.5c0.3,0.8,1.1,1,1.4,1.1c0,0.7,0.1,1.2,0.7,1.1c0.1-0.2,0.1-0.4,0.2-0.5
		c0.1,0.1,0.2,0.1,0.3,0.4c-0.1,0-0.1,0-0.1,0.1c0.3,0.4,0.2,1.2,0.3,1.6c0.1,0.4,0.3,0.9,0.3,1.4c0.6,1.4,0.9,1.9,1.3,3.1
		c0.2,0,0.2,0.3,0.4,0.3c0.2-0.3,0.5-0.5,0.7-0.8c0-1,0.5-1.7,0.2-3.1c0.9-0.9,1.8-1.8,2.3-3.2c0.6,0,0.9-0.2,1.2-0.5
		c0.4,1,1.6,1.5,1.3,2.9c0.3,0.6,1.1,0.6,1.4,0.1c0.2,0.8,0.8,2.3,0.6,3.4c0.4,0.9,1.1,2.2,1.3,3.3c-0.4-0.1-0.7-0.4-1.1-0.5
		c-0.1-0.5-0.7-0.9-1-0.4c0.1,0.7,0.5,1.2,0.7,1.7c0.1,0.2,0.2,0.6,0.4,0.9c0.1,0.2,0.4,0.4,0.6,0.7c0.5,0.8,0.9,1,1.6,1.5
		c0.2,0.1,0.4,0.3,0.5,0.5C75.7,82.7,63,90.3,48.5,90.3z M59.3,45.3c0.5-0.6,1.6-1.3,2.3-0.8c-0.1,0.6-0.9,0.5-0.9,1.2
		c0.2,0.6,0.8,1.1,0.9,2c0.1,0.3,0,0.6,0.1,0.8c0,0,0,0,0,0h-1.4c0-0.1,0.1-0.2,0.1-0.4C60.4,47,59.3,46.4,59.3,45.3z M57.2,47.5
		c-0.3,0.1-0.5,0.4-1,0.3c-0.3-0.1-0.6-0.5-0.9-0.6c-0.3-0.1-1.9,0-2.3,0.2c-0.2,0.1-0.3,0.5-0.7,0.4c0.3-0.4-0.2-0.6-0.2-0.9
		c0-0.3,0.1-0.4,0.3-0.8c0.3-0.6,0.3-1.3,0.8-1.5c0.1,0.3,0.3,0.4,0.6,0.4c0,0.3,0.1,0.4,0.1,0.7c0.4,0.1,0.7-0.1,1-0.4
		c0-0.3-0.2-0.3-0.2-0.6c0.3-0.2,0.9,0,1-0.5c0.2,0.3-0.1,0.5-0.2,0.8c0.4,1,1,1.5,1.7,2C57.3,47.3,57.1,47.3,57.2,47.5z M88,60.3
		c-0.7,2.5-1.7,5-2.8,7.3c-0.2,0-0.2,0-0.5,0c-0.3,0.2-0.3,0.7-0.2,1.2c-0.3,0.5-0.5,0.9-0.8,1.4c0-0.1,0-0.2,0-0.3
		c-0.2-0.2-0.4,0.1-0.6,0.1c-0.3-0.9-1.3-1.5-1.5-2.4c0.4,0.2,0.8,0.9,1.2,0.4c-0.2-1-0.5-1.9-1.1-2.6c-0.1-0.1-0.3-0.2-0.4-0.3
		c-0.6-0.8-1.1-1.8-0.5-2.6c0.5,0.3,0.9,0.7,1.4,1c0.2,0.4,0.1,0.7,0.4,0.8c0.3-0.1,0.2-0.8,0.7-0.6c0.2-0.5,0.8-0.6,0.9-1.2
		c-0.1-0.8-0.4-1.3-0.6-2.1c-0.2-0.3-0.5-0.3-0.7-0.5c0-0.5-0.4-1-0.3-1.6c0.2-0.3,0.6-0.4,0.9-0.5c0.1,0,0.1,0.2,0.2,0.4
		c0.4-0.3,0.9-0.4,1.1-0.9c0.1-0.1,0.2,0.1,0.3,0c0.7-0.4,1.6-0.8,2-1.6c0-1.1,0.7-1.4,0.6-2.7c0-0.2-0.2-0.2-0.2-0.5
		c0-1.1-0.6-1.2-0.7-2c0.3-0.4,0.7-0.6,0.8-1.2c-0.1-0.8-0.8-0.5-1.3-0.5c0-0.2,0-0.3,0-0.4c0-0.4,0.4-0.6,0.7-0.9
		c0.2,0.1,0.3,0.3,0.3,0.5c0.4,0.1,0.5,0,0.9,0c0.1,0.1,0.3,0.2,0.4,0.3c0.2,0.3,0.3,0.7,0.5,1.1c-0.2,0.6-0.1,0.9,0.2,1.1
		c-0.1,2.8-0.5,5.6-1.1,8.2c-0.1,0.1-0.2,0.3-0.4,0.4C88,59.7,88,60,88,60.3z M33.7,30.1c-1-1.6-1.7,1.2-0.3,1.4
		c0.4,1.4,1.6,0.5,2.4,0.4c0.1-0.4,0.3-0.8,0.7-0.9c0.1-0.4,0-0.7-0.1-1.2C35.2,30,34.6,30.2,33.7,30.1z M73.4,64.3
		c-0.1,0.2-0.1,0.6-0.3,0.7c0.3,0.2,0.1,0.8,0.4,1.1c0.3,0,0.5,0.1,0.7-0.2C74.2,64.9,73.9,64.6,73.4,64.3z M20.9,42.1
		c-0.2-0.2-0.2-0.6-0.1-0.9c-0.9-0.9-1.5,0.9-1.4,2.1c0.5-0.1,0.9,0.1,1.3,0.5c0.4-0.3,0.8,0,1.2-0.2C21.6,43.1,21.7,41.7,20.9,42.1z
		 M18.9,43.6c-0.1,0.7-0.7,1-1.2,0.9c0.2,0.8,0.9,0.1,1.3,0.1c0-0.3,0.2-0.6,0-0.9C19,43.6,19,43.5,18.9,43.6z"/>
	</symbol>
</svg>